<svg width="47" height="62" viewBox="0 0 47 62" fill="none" xmlns="http://www.w3.org/2000/svg">
<g clip-path="url(#clip0_29_290)">
<path d="M39.1667 56.1875C40.2438 56.1875 41.125 55.3156 41.125 54.25V19.375H31.3333C29.1669 19.375 27.4167 17.6434 27.4167 15.5V5.8125H7.83333C6.75625 5.8125 5.875 6.68437 5.875 7.75V54.25C5.875 55.3156 6.75625 56.1875 7.83333 56.1875H39.1667ZM0 7.75C0 3.47539 3.51276 0 7.83333 0H28.0898C30.1706 0 32.1656 0.811328 33.6344 2.26445L44.7112 13.2234C46.1799 14.6766 47 16.6504 47 18.709V54.25C47 58.5246 43.4872 62 39.1667 62H7.83333C3.51276 62 0 58.5246 0 54.25V7.75Z" fill="black"/>
</g>
<defs>
<clipPath id="clip0_29_290">
<rect width="47" height="62" fill="white"/>
</clipPath>
</defs>
</svg>
