<svg width="43" height="43" viewBox="0 0 43 43" fill="none" xmlns="http://www.w3.org/2000/svg">
<path d="M9.62701 43H0.710268V14.2917H9.62701V43ZM5.16384 10.3757C2.31317 10.3757 0 8.01451 0 5.16384C0 3.7943 0.544046 2.48086 1.51245 1.51245C2.48086 0.544046 3.7943 0 5.16384 0C6.53337 0 7.84682 0.544046 8.81522 1.51245C9.78363 2.48086 10.3277 3.7943 10.3277 5.16384C10.3277 8.01451 8.01451 10.3757 5.16384 10.3757ZM42.9904 43H34.0929V29.025C34.0929 25.6944 34.0257 21.4232 29.4569 21.4232C24.821 21.4232 24.1107 25.0417 24.1107 28.785V43H15.2036V14.2917H23.7556V18.2078H23.8804C25.0705 15.9522 27.9788 13.5719 32.3172 13.5719C41.3395 13.5719 43 19.5132 43 27.2301V43H42.9904Z" fill="black"/>
</svg>
