<svg width="57" height="42" viewBox="0 0 57 42" fill="none" xmlns="http://www.w3.org/2000/svg">
<path d="M7.125 5.25C6.14531 5.25 5.34375 6.0375 5.34375 7V9.41719L24.5479 24.9047C26.8523 26.7641 30.1588 26.7641 32.4633 24.9047L51.6562 9.41719V7C51.6562 6.0375 50.8547 5.25 49.875 5.25H7.125ZM5.34375 16.2094V35C5.34375 35.9625 6.14531 36.75 7.125 36.75H49.875C50.8547 36.75 51.6562 35.9625 51.6562 35V16.2094L35.8477 28.9625C31.5727 32.4078 25.4162 32.4078 21.1523 28.9625L5.34375 16.2094ZM0 7C0 3.13906 3.19512 0 7.125 0H49.875C53.8049 0 57 3.13906 57 7V35C57 38.8609 53.8049 42 49.875 42H7.125C3.19512 42 0 38.8609 0 35V7Z" fill="black"/>
</svg>
